<svg viewBox="0 0 500 500" xmlns="http://www.w3.org/2000/svg"><defs><clipPath id="a"><path d="M0 0h500v500H0Z"/></clipPath></defs><g clip-path="url(#a)"><path fill="#820EFF" d="M121.99 0h255.97c67.37 0 121.99 54.61 121.99 121.99v255.97c0 67.37-54.62 121.99-121.99 121.99H121.98C54.6 499.95-.01 445.33-.01 377.96V121.98C-.01 54.6 54.6-.01 121.98-.01Z"/><g fill="#FFF"><path d="M225.534 90.12c11.68-.27 23.69-.03 35.41.05 10.39.07 22.1-.48 32.375.14 24.58 1.49 45.49 12.87 61.709 31.18 15.31 17.08 23.15 39.6 21.76 62.509 -.86 14.1-4.67 26.98-12.32 38.91 -2.86 4.45-6.29 9.06-10.26 12.57l-20.97-20.88c-1.69-1.66-9.84-9.29-10.85-10.77 1.1-1.66 2.16-3.26 3.19-4.98 16.31-27.39-3.62-61.03-34.68-62.77 -4.25-.24-8.59-.12-12.9-.12l-22.94.01 -28.155-.02c-7.32-.01-16.01-.39-23.06 1.03 -6.87 1.33-13.27 4.42-18.59 8.96 -9.19 7.81-14.85 18.99-15.71 31.03 -.75 10.96 3.21 21.25 10.34 29.47l64.56 63.15 16.55 16.02c6.37 6.23 11.47 10.57 11.72 20.26 .16 5.9-2.05 11.62-6.16 15.86 -4.19 4.4-9.98 6.92-16.06 6.99 -4.73.06-9.36-1.38-13.22-4.11 -3.12-2.19-8.34-7.77-11.27-10.69l-18.24-18.03 -58.57-56.83c-3.28-3.2-6.56-6.62-9.34-10.26 -25.348-33.2-19.29-82.32 9.39-111.66 14.72-15.17 34.33-24.64 55.36-26.76 5.78-.58 14.68-.34 20.8-.41Z"/><path d="M275.46 409.879c-11.69.26-23.7.02-35.42-.06 -10.4-.08-22.11.47-32.38-.15 -24.59-1.5-45.5-12.88-61.71-31.19 -15.32-17.09-23.16-39.6-21.77-62.51 .85-14.11 4.66-26.99 12.31-38.92 2.85-4.45 6.28-9.07 10.25-12.58l20.96 20.87c1.68 1.65 9.83 9.28 10.84 10.76 -1.11 1.65-2.17 3.25-3.2 4.97 -16.32 27.38 3.61 61.02 34.67 62.76 4.24.23 8.58.11 12.89.11l22.93-.02 28.15.01c7.32 0 16 .38 23.05-1.04 6.86-1.34 13.26-4.43 18.58-8.97 9.18-7.82 14.84-19 15.7-31.04 .74-10.97-3.22-21.26-10.35-29.48l-64.57-63.16 -16.56-16.03c-6.38-6.24-11.47-10.58-11.73-20.27 -.17-5.91 2.05-11.625 6.15-15.869 4.18-4.41 9.97-6.93 16.05-7 4.72-.07 9.35 1.375 13.21 4.1 3.11 2.18 8.33 7.76 11.26 10.68L293 203.87l58.56 56.82c3.27 3.19 6.55 6.61 9.33 10.25 25.34 33.19 19.28 82.31-9.4 111.65 -14.73 15.16-34.34 24.63-55.36 26.75 -5.79.57-14.69.33-20.81.4Z"/></g></g></svg>