<svg viewBox="0 0 500 500" xmlns="http://www.w3.org/2000/svg"><g><path d="M52.41 347.13c.6-22.4 15.39-59.65 31.59-75.53 .72-.72 1.38-1.25 2.39-1.48 3.36 1.95 15.45 14.3 19.24 17.73 7.33 6.64 15.41 14.45 22.57 21.46 2.34 2.29 6.76 6.38 8.73 8.81 .01.47-6.57 10.99-7.43 12.87 -12.7 27.57-7.23 57.68 14.85 78.64 9.34 8.73 20.91 14.71 33.44 17.3 9.05 1.92 19.23 1.45 28.55 1.44l32.2-.05 51.52 0c6.48-.03 13.71.17 20.11-.04 18.23-.53 35.51-8.32 47.98-21.63 21.23-22.61 25.76-54.16 9.15-80.96 -5.78-9.32-11.91-14.55-19.53-22L328.6 284.8l-81.11-80.77c-7.98-7.91-22.92-20.54-27.81-29.9 -7.63-14.57-1.05-35.803 12.97-44.11 13.17-8.61 31.47-7.57 42.8 3.46 3 2.92 5.94 6.01 8.92 8.97L303 160.83l58.6 57.61 35.22 34.52c9.39 9.33 23.32 23.15 30.24 34.08 12.86 20.68 20.03 44.4 20.77 68.74 2.09 79.04-59.41 142.29-138.14 144.03 -5.89.07-11.78.05-17.66-.07 -1.02-.86-36.55-.15-41.29-.43 -.34-.62-.14-.32-.64-.9 -3.22-.09-7.09-.25-10.28.06 .76.61.83.42 1.96.56 -4.4.32-10.62.14-15.13.14 -8.18.03-16.35.02-24.53-.03 -3.07-.02-13.03-.29-15.45.36 -6.26.51-15.58-1.43-21.85-2.63 -56.03-10.73-101.06-56.04-110.95-112.25 -.74-4.19-1.66-9.76-1.71-13.95 .6-1.74.62-22.02.09-23.72Z"/><path d="M210.915.18c18.286-.42 37.08-.04 55.42.09 16.27.11 34.59-.75 50.67.22 38.48 2.33 71.2 20.12 96.58 48.75 23.96 26.71 36.23 61.9 34.05 97.71 -1.35 22.05-7.3 42.19-19.28 60.83 -4.47 6.95-9.84 14.16-16.05 19.66l-32.81-32.63c-2.64-2.59-15.4-14.52-16.976-16.83 1.72-2.59 3.39-5.09 4.99-7.78 25.53-42.82-5.66-95.41-54.28-98.12 -6.65-.38-13.45-.19-20.18-.18l-35.91.02 -44.066-.04c-11.46-.01-25.06-.61-36.09 1.62 -10.75 2.09-20.762 6.91-29.1 14 -14.38 12.21-23.24 29.7-24.58 48.51 -1.17 17.13 5.02 33.22 16.18 46.08l101.05 98.72 25.91 25.05c9.97 9.74 17.95 16.53 18.35 31.67 .26 9.22-3.21 18.17-9.64 24.8 -6.56 6.88-15.62 10.82-25.13 10.93 -7.41.09-14.643-2.15-20.69-6.42 -4.88-3.42-13.05-12.15-17.63-16.7l-28.55-28.19 -91.66-88.84c-5.13-5-10.26-10.35-14.61-16.04 -39.68-51.9-30.19-128.68 14.7-174.55C114.63 18.81 145.31 4 178.22.69c9.05-.9 22.98-.53 32.55-.64Z"/></g></svg>