<svg viewBox="0 0 500 500" xmlns="http://www.w3.org/2000/svg"><defs><clipPath id="a"><path d="M0 0h500v500H0Z"/></clipPath></defs><g clip-path="url(#a)"><g fill="#FFF"><path d="M210.915.18c18.286-.42 37.08-.04 55.42.09 16.27.11 34.6-.75 50.67.22 38.48 2.33 71.2 20.12 96.58 48.75 23.97 26.71 36.23 61.9 34.06 97.71 -1.35 22.05-7.3 42.19-19.28 60.83 -4.47 6.95-9.84 14.16-16.05 19.66l-32.81-32.63c-2.64-2.59-15.4-14.52-16.976-16.83 1.72-2.59 3.39-5.09 4.99-7.78 25.53-42.82-5.66-95.41-54.28-98.12 -6.65-.38-13.45-.19-20.18-.18l-35.91.02 -44.066-.04c-11.46-.01-25.06-.61-36.09 1.62 -10.75 2.09-20.77 6.91-29.1 14 -14.38 12.21-23.24 29.7-24.58 48.51 -1.17 17.13 5.02 33.22 16.18 46.08l101.05 98.72 25.91 25.05c9.97 9.74 17.95 16.53 18.35 31.67 .26 9.22-3.21 18.17-9.64 24.8 -6.56 6.88-15.62 10.82-25.13 10.93 -7.41.09-14.643-2.15-20.69-6.42 -4.88-3.42-13.05-12.15-17.63-16.7l-28.55-28.19 -91.66-88.84c-5.13-5-10.26-10.35-14.61-16.04 -39.68-51.9-30.19-128.68 14.7-174.55C114.64 18.81 145.32 4 178.23.69c9.05-.9 22.98-.53 32.55-.64Z"/><path d="M289.066 500.054c-18.29.41-37.09.03-55.43-.1 -16.27-.12-34.6.74-50.672-.23 -38.49-2.34-71.21-20.13-96.59-48.76 -23.97-26.72-36.24-61.91-34.06-97.72 1.34-22.05 7.29-42.2 19.27-60.83 4.46-6.96 9.83-14.17 16.04-19.66l32.8 32.62c2.64 2.58 15.39 14.52 16.97 16.82 -1.73 2.58-3.4 5.08-5 7.77 -25.54 42.81 5.66 95.4 54.27 98.11 6.64.37 13.44.18 20.18.17l35.9-.03 44.066.03c11.45 0 25.05.6 36.08-1.63 10.74-2.1 20.76-6.92 29.09-14.01 14.37-12.22 23.23-29.7 24.57-48.52 1.16-17.14-5.03-33.23-16.19-46.09L259.3 219.26l-25.91-25.06c-9.98-9.75-17.96-16.54-18.36-31.68 -.27-9.23 3.2-18.18 9.63-24.81 6.55-6.89 15.61-10.83 25.12-10.94 7.4-.1 14.64 2.14 20.68 6.41 4.87 3.41 13.04 12.14 17.62 16.7l28.54 28.18 91.65 88.834c5.12 4.99 10.25 10.34 14.6 16.03 39.67 51.89 30.18 128.67-14.71 174.54 -23.06 23.7-53.74 38.51-86.65 41.827 -9.06.89-22.99.52-32.56.63Z"/></g></g></svg>