<svg viewBox="0 0 500 500" xmlns="http://www.w3.org/2000/svg"><defs><clipPath id="a"><path d="M0 0h500v500H0Z"/></clipPath></defs><g clip-path="url(#a)"><path fill="#820EFF" d="M121.99 0h255.97c67.37 0 121.99 54.61 121.99 121.99v255.97c0 67.37-54.62 121.99-121.99 121.99H121.98C54.6 499.95-.01 445.33-.01 377.96V121.98C-.01 54.6 54.6-.01 121.98-.01Z"/><g fill="#FFF"><path d="M124.26 312.169c.38-14.34 9.83-38.18 20.18-48.34 .46-.46.88-.8 1.52-.95 2.15 1.25 9.87 9.15 12.29 11.35 4.68 4.25 9.84 9.25 14.42 13.73 1.49 1.46 4.32 4.08 5.58 5.64 0 .3-4.2 7.03-4.75 8.24 -8.113 17.64-4.62 36.91 9.49 50.33 5.97 5.58 13.36 9.42 21.37 11.07 5.78 1.22 12.28.93 18.24.92l20.57-.03 32.92 0c4.14-.02 8.76.1 12.85-.02 11.65-.34 22.68-5.33 30.65-13.85 13.56-14.47 16.46-34.66 5.84-51.82 -3.69-5.97-7.61-9.31-12.48-14.08l-12.25-12.09 -51.82-51.69c-5.1-5.07-14.64-13.15-17.77-19.14 -4.87-9.32-.67-22.92 8.28-28.23 8.41-5.51 20.1-4.85 27.34 2.21 1.92 1.87 3.79 3.84 5.7 5.74l11.9 11.76 37.44 36.87 22.5 22.09c6 5.97 14.9 14.82 19.32 21.81 8.22 13.23 12.8 28.41 13.27 43.99 1.33 50.59-37.96 91.07-88.255 92.18 -3.77.04-7.53.03-11.29-.05 -.65-.55-23.35-.1-26.38-.27 -.22-.4-.09-.2-.41-.58 -2.06-.06-4.53-.16-6.57.04 .48.39.53.27 1.25.36 -2.82.21-6.78.09-9.67.09 -5.23.02-10.45.01-15.67-.02 -1.96-.02-8.33-.18-9.87.23 -4 .32-9.95-.92-13.96-1.69 -35.8-6.87-64.57-35.87-70.89-71.85 -.47-2.68-1.06-6.25-1.09-8.93 .39-1.11.4-14.1.05-15.18Z"/><path d="M225.529 90.12c11.68-.27 23.69-.03 35.41.05 10.39.07 22.1-.48 32.37.14 24.58 1.49 45.49 12.87 61.7 31.2 15.31 17.09 23.15 39.61 21.76 62.539 -.86 14.11-4.67 27-12.32 38.93 -2.86 4.45-6.29 9.06-10.26 12.58l-20.97-20.89c-1.69-1.66-9.84-9.3-10.85-10.77 1.1-1.66 2.16-3.26 3.19-4.98 16.31-27.41-3.62-61.06-34.68-62.8 -4.25-.24-8.59-.12-12.9-.12l-22.94.01 -28.16-.02c-7.32-.01-16.01-.39-23.06 1.03 -6.87 1.34-13.27 4.42-18.59 8.96 -9.19 7.81-14.85 19-15.71 31.04 -.75 10.96 3.21 21.26 10.34 29.49l64.56 63.185 16.55 16.03c6.37 6.23 11.46 10.57 11.72 20.27 .16 5.9-2.06 11.63-6.16 15.87 -4.19 4.4-9.98 6.93-16.06 6.99 -4.73.06-9.36-1.375-13.22-4.11 -3.12-2.19-8.34-7.78-11.27-10.69l-18.24-18.04 -58.56-56.86c-3.28-3.2-6.56-6.63-9.33-10.27 -25.35-33.22-19.29-82.36 9.39-111.71 14.72-15.17 34.33-24.66 55.35-26.77 5.78-.58 14.68-.34 20.8-.41Z"/></g></g></svg>
